<!DOCTYPE svg PUBLIC "-//W3C//DTD SVG 20010904//EN"
 "http://www.w3.org/TR/2001/REC-SVG-20010904/DTD/svg10.dtd">
<svg version="1.0" xmlns="http://www.w3.org/2000/svg"
   viewBox="0 0 600 665"
 preserveAspectRatio="xMidYMid meet">
<g transform="translate(0.000000,665.000000) scale(0.100000,-0.100000)"
fill="white" stroke="none">
<path d="M2856 6527 c-55 -31 -90 -97 -82 -156 8 -61 39 -106 90 -130 74 -36
148 -22 199 38 35 43 47 89 36 143 -24 109 -145 161 -243 105z"/>
<path d="M2095 6021 c-320 -100 -623 -258 -893 -466 -133 -102 -374 -339 -475
-465 -328 -410 -537 -908 -603 -1430 -13 -107 -15 -186 -11 -395 5 -268 17
-367 68 -590 92 -401 295 -815 563 -1145 77 -95 288 -310 304 -310 7 0 12 8
12 18 0 29 55 134 93 177 l35 40 -73 76 c-326 342 -542 727 -654 1166 -54 209
-88 554 -76 753 58 944 600 1759 1440 2164 105 51 293 126 315 126 5 0 10 17
10 38 0 65 28 173 60 228 18 33 25 54 18 53 -7 0 -67 -17 -133 -38z"/>
<path d="M2511 5974 c-125 -63 -156 -213 -64 -315 67 -74 165 -91 253 -43 l47
26 624 -283 c343 -155 634 -284 646 -286 14 -3 45 11 92 41 39 25 71 47 71 49
0 2 -310 142 -689 313 l-689 309 -4 41 c-10 86 -89 160 -185 170 -39 4 -58 0
-102 -22z"/>
<path d="M4681 5759 c-86 -352 -244 -564 -559 -750 -173 -102 -439 -206 -742
-289 -63 -18 -119 -35 -123 -40 -5 -4 5 -27 22 -50 40 -55 70 -137 78 -211 3
-32 9 -59 13 -59 22 0 379 152 515 219 201 100 320 178 436 289 181 172 274
330 334 566 22 85 52 353 41 363 -3 3 -9 -15 -15 -38z"/>
<path d="M4888 5354 c-3 -5 -13 -36 -23 -69 -9 -33 -30 -92 -47 -132 l-29 -72
91 -108 c325 -383 527 -847 591 -1358 16 -131 17 -463 0 -590 -74 -583 -327
-1103 -730 -1505 -364 -363 -803 -596 -1328 -706 -21 -4 -23 -10 -23 -72 0
-37 -3 -97 -6 -134 -6 -58 -4 -68 10 -74 18 -7 209 33 344 72 145 42 270 92
447 179 278 137 516 307 740 530 444 442 710 965 812 1600 26 158 25 640 0
805 -95 605 -345 1121 -750 1546 -51 54 -96 94 -99 88z"/>
<path d="M2454 5276 c-48 -21 -115 -86 -135 -131 -24 -53 -24 -147 0 -200 40
-88 127 -144 222 -145 70 0 118 19 172 69 l42 39 242 -66 242 -65 128 37 c70
21 134 41 140 45 7 4 -135 46 -315 94 -180 48 -344 92 -364 97 -29 8 -38 16
-38 32 0 61 -74 157 -145 189 -48 22 -146 24 -191 5z"/>
<path d="M2860 4694 c-157 -42 -249 -171 -238 -333 20 -268 350 -389 541 -198
61 61 87 127 87 223 0 70 -4 89 -30 142 -67 134 -219 204 -360 166z"/>
<path d="M2390 4401 c-477 -216 -732 -539 -780 -986 -19 -174 11 -361 91 -567
105 -270 281 -529 700 -1033 519 -624 659 -862 676 -1154 8 -130 -8 -210 -66
-326 -27 -52 -46 -95 -44 -95 9 0 93 141 116 195 48 114 61 182 60 310 -1 305
-103 539 -507 1170 -148 232 -288 467 -281 473 4 4 892 -16 979 -22 l48 -3 -5
37 c-3 21 -1 56 3 79 7 37 5 41 -14 41 -11 0 -244 7 -516 15 -272 8 -514 15
-537 15 -40 0 -44 3 -59 38 -26 60 -82 226 -89 265 l-7 35 44 6 c23 3 268 12
543 21 275 9 523 18 550 21 l50 5 0 74 0 75 -60 0 c-33 0 -292 -9 -575 -20
-283 -11 -530 -20 -547 -20 l-33 0 1 113 c0 61 6 132 12 156 l12 45 465 99
c256 55 466 101 467 102 1 0 -4 23 -12 50 -8 26 -15 61 -15 77 0 23 -4 28 -17
24 -58 -17 -825 -177 -830 -173 -8 8 59 124 112 195 60 80 175 186 274 254
l80 55 -31 29 c-80 75 -128 188 -128 301 0 52 -4 73 -12 73 -7 -1 -60 -22
-118 -49z"/>
<path d="M3350 3996 c-89 -23 -155 -79 -190 -159 -49 -111 -33 -218 46 -306
60 -67 112 -93 194 -98 119 -9 229 56 282 166 30 63 31 167 2 232 -60 129
-204 201 -334 165z"/>
<path d="M3611 3269 c-154 -29 -241 -208 -170 -350 44 -88 119 -133 224 -133
59 -1 77 3 116 26 85 50 137 147 126 238 -18 147 -151 246 -296 219z"/>
<path d="M3526 2617 c-22 -12 -53 -39 -70 -60 -26 -32 -31 -48 -34 -106 -5
-83 19 -137 79 -181 151 -109 364 33 319 212 -32 128 -185 198 -294 135z"/>
<path d="M3185 2261 c-75 -35 -111 -126 -80 -206 29 -77 103 -120 181 -106 86
16 134 75 134 163 0 69 -28 114 -90 146 -54 27 -92 28 -145 3z"/>
<path d="M2709 2147 c-77 -51 -88 -148 -24 -211 44 -44 91 -53 149 -27 24 10
52 31 61 45 79 121 -67 273 -186 193z"/>
<path d="M2173 1865 c-33 -14 -63 -59 -63 -95 0 -54 57 -110 112 -110 38 0 85
35 98 74 16 49 -2 101 -44 127 -36 22 -59 23 -103 4z"/>
<path d="M1765 1681 c-103 -46 -143 -173 -85 -268 53 -87 162 -118 251 -70
l47 25 448 -188 c246 -104 450 -188 452 -186 5 6 -25 62 -79 146 l-49 75 -360
150 c-342 142 -360 150 -360 175 0 14 -14 47 -30 74 -51 79 -148 107 -235 67z"/>
<path d="M1414 1316 c-127 -59 -167 -219 -84 -334 36 -51 118 -92 179 -92 49
0 123 29 156 60 20 19 29 16 655 -205 349 -123 640 -225 646 -225 12 0 24 53
24 112 0 25 -6 40 -17 47 -15 7 -327 119 -1214 433 -21 7 -28 17 -32 50 -8 59
-53 117 -116 150 -68 35 -127 37 -197 4z"/>
<path d="M1290 699 c-33 -14 -78 -57 -97 -94 -20 -37 -19 -124 0 -161 31 -60
104 -104 169 -104 49 1 112 33 144 75 22 30 29 50 32 99 4 73 -15 115 -71 160
-30 24 -49 30 -95 33 -31 1 -68 -2 -82 -8z"/>
</g>
</svg>